<?xml version="1.0" encoding="utf-8"?>
<!DOCTYPE svg PUBLIC "-//W3C//DTD SVG 1.1//EN" "http://www.w3.org/Graphics/SVG/1.1/DTD/svg11.dtd">
<svg version="1.1" xmlns="http://www.w3.org/2000/svg" xmlns:xlink="http://www.w3.org/1999/xlink" x="0px" y="0px" width="16px" height="16px" viewBox="0 0 16 16" enable-background="new 0 0 16 16" xml:space="preserve">
<g>
    <path d="M13.97,3.199C12.815,5.165,10.797,6.055,8,6.055c-2.797,0-4.815-0.89-5.97-2.855C0.877,3.919,0,5.188,0,6.733 c0,1.58,0.961,2.952,2.214,3.644C3.406,11.043,5.328,11.433,8,11.433s4.594-0.39,5.786-1.056C15.039,9.686,16,8.313,16,6.733 C16,5.188,15.123,3.919,13.97,3.199z"/>
    <path d="M4,10.143l1.829-5.02c0.058-0.182-0.033-0.298-0.18-0.298c-0.182,0-0.276,0.087-0.341,0.266l-1.84,5.052 c-0.125,0.341-0.471,0.656-0.596,0.997l-0.484,1.329c-0.067,0.184,0.028,0.332,0.211,0.332h0.333c0.239,0,0.36-0.082,0.453-0.332 l0.451-1.235C3.954,10.909,3.847,10.591,4,10.143z"/>
    <path d="M6.394,10.143l1.829-5.02c0.059-0.182-0.033-0.298-0.18-0.298c-0.182,0-0.275,0.087-0.339,0.266l-1.841,5.052 c-0.124,0.341-0.472,0.656-0.596,0.997l-0.484,1.329c-0.067,0.184,0.028,0.332,0.211,0.332h0.332c0.239,0,0.36-0.082,0.454-0.332 l0.45-1.235C6.347,10.909,6.241,10.591,6.394,10.143z"/>
    <path d="M8.787,10.143l1.828-5.02c0.059-0.182-0.033-0.298-0.179-0.298c-0.183,0-0.276,0.087-0.34,0.266l-1.84,5.052 c-0.125,0.341-0.472,0.656-0.596,0.997l-0.484,1.329c-0.067,0.184,0.028,0.332,0.211,0.332h0.332c0.24,0,0.36-0.082,0.454-0.332 l0.45-1.235C8.739,10.909,8.633,10.591,8.787,10.143z"/>
</g>
</svg>
